<?xml version="1.0" encoding="UTF-8" standalone="no"?>
<svg
   version="1.0"
   width="251.000000pt"
   height="280.000000pt"
   viewBox="0 0 251.000000 280.000000"
   preserveAspectRatio="xMidYMid meet"
   id="svg29"
   sodipodi:docname="provincia cordoba.svg"
   inkscape:version="1.4 (86a8ad7, 2024-10-11)"
   xmlns:inkscape="http://www.inkscape.org/namespaces/inkscape"
   xmlns:sodipodi="http://sodipodi.sourceforge.net/DTD/sodipodi-0.dtd"
   xmlns="http://www.w3.org/2000/svg"
   xmlns:svg="http://www.w3.org/2000/svg">
  <defs
     id="defs29" />
  <sodipodi:namedview
     id="namedview29"
     pagecolor="#ffffff"
     bordercolor="#000000"
     borderopacity="0.25"
     inkscape:showpageshadow="2"
     inkscape:pageopacity="0.0"
     inkscape:pagecheckerboard="0"
     inkscape:deskcolor="#d1d1d1"
     inkscape:document-units="pt"
     inkscape:zoom="4.3232143"
     inkscape:cx="173.13507"
     inkscape:cy="128.49236"
     inkscape:window-width="1920"
     inkscape:window-height="1009"
     inkscape:window-x="-8"
     inkscape:window-y="-8"
     inkscape:window-maximized="1"
     inkscape:current-layer="svg29" />
  <g
     transform="translate(0.000000,280.000000) scale(0.100000,-0.100000)"
     fill="#000000"
     stroke="none"
     id="g29"
     inkscape:label="mapa"
     style="fill:#f9f9f9">
    <path
       d="m 1012,2484 c -24,-16 -32,-17 -104,-11 l -46,4 11,-25 c 9,-20 9,-26 -1,-30 -7,-2 -10,-8 -7,-13 4,-5 -1,-6 -9,-3 -8,3 -25,-4 -38,-16 -13,-12 -40,-33 -60,-46 -21,-13 -38,-31 -38,-40 0,-11 -9,-14 -37,-12 -35,3 -38,0 -50,-32 -6,-19 -12,-31 -12,-27 -1,5 -16,-7 -34,-25 -61,-60 -89,-82 -107,-83 -31,-2 -67,-32 -78,-64 -9,-27 -8,-32 8,-41 16,-9 18,-15 9,-36 -7,-19 -6,-31 3,-41 31,-38 61,-163 39,-163 -6,0 -11,-13 -11,-30 0,-23 -5,-31 -25,-36 -17,-4 -25,-13 -25,-28 0,-15 9,-27 25,-34 14,-6 25,-18 25,-25 0,-7 11,-24 25,-37 18,-17 25,-34 25,-61 0,-33 5,-40 45,-66 43,-27 44,-29 45,-81 0,-52 0,-52 45,-74 42,-21 45,-24 39,-53 -4,-25 -1,-33 18,-43 18,-10 24,-23 26,-59 3,-48 -12,-71 -35,-52 -8,8 -16,5 -25,-10 -15,-24 -28,-27 -28,-6 0,9 -6,12 -15,9 -17,-7 -21,-44 -4,-44 8,0 7,-5 -2,-16 -11,-13 -7,-21 25,-50 l 38,-35 23,21 c 12,11 31,22 42,24 12,3 44,21 72,41 36,26 56,35 69,29 33,-14 72,-10 72,8 0,9 -6,19 -12,21 -8,4 -7,6 3,6 10,1 19,-9 23,-24 4,-14 10,-25 15,-25 5,0 7,10 4,21 -7,26 19,49 55,49 34,0 92,-63 92,-99 0,-15 -6,-33 -12,-41 -11,-12 -10,-12 5,-1 9,8 20,11 24,7 10,-10 11,-78 2,-103 -5,-13 -5,-23 0,-23 5,0 16,-16 26,-36 20,-43 54,-79 75,-79 8,0 15,-9 15,-20 0,-11 6,-30 13,-42 6,-12 12,-28 12,-35 0,-17 39,-41 68,-43 13,0 29,7 36,16 11,17 14,16 45,-3 21,-14 28,-23 21,-28 -8,-5 -7,-9 4,-13 9,-4 16,-11 16,-17 0,-6 -4,-8 -10,-5 -5,3 -10,1 -10,-4 0,-6 4,-11 9,-11 5,0 12,-11 15,-24 4,-18 11,-23 25,-19 13,3 22,-3 32,-26 12,-27 17,-29 51,-26 57,6 76,14 83,36 4,10 11,19 17,19 5,0 20,8 33,18 16,13 34,17 59,14 36,-4 41,-12 37,-55 -2,-10 8,-21 21,-26 13,-5 30,-16 37,-25 7,-9 18,-16 23,-16 19,0 58,54 58,81 0,15 5,31 10,34 6,3 10,23 10,44 0,48 26,75 64,65 21,-5 31,0 52,26 34,40 57,49 106,40 21,-4 38,-5 38,-2 0,14 -57,92 -67,92 -19,0 -26,20 -13,35 8,9 8,15 2,15 -16,0 -102,93 -108,117 -6,22 -15,27 -41,24 -7,-1 -16,7 -22,17 -8,15 -3,23 24,45 40,32 37,52 -11,72 -38,15 -42,30 -18,63 20,29 11,42 -32,42 -19,0 -37,6 -39,13 -3,6 0,44 6,82 21,143 22,155 5,179 -14,22 -14,26 3,45 10,12 23,21 30,21 6,0 11,5 11,10 0,6 -5,10 -11,10 -6,0 -5,6 3,15 30,34 38,45 32,45 -4,0 7,13 24,28 38,34 42,72 11,103 -12,12 -18,27 -14,38 3,11 0,21 -8,24 -10,4 -13,18 -12,41 2,20 0,36 -5,36 -4,0 -13,14 -19,30 -7,23 -16,30 -36,30 -14,0 -36,7 -48,15 -13,8 -54,26 -92,40 -47,17 -83,38 -110,65 -62,61 -69,67 -83,62 -6,-2 -12,1 -12,7 0,5 -12,11 -27,13 -17,2 -32,12 -37,24 -10,22 -58,54 -82,54 -8,0 -14,6 -14,13 0,14 -95,53 -121,49 -9,-2 -22,4 -29,13 -7,8 -19,15 -26,15 -9,0 -14,12 -14,33 0,52 -12,61 -73,58 -51,-2 -57,0 -91,33 -19,20 -37,36 -38,36 -2,0 -14,-7 -26,-16 z"
       id="path1"
       style="display:inline;fill:#f9f9f9" />
  </g>
  <path
     d="m 78.263412,80.214829 c -0.862942,0.09588 -1.74586,0.49939 -2.301179,1.042723 -0.966814,0.942843 -1.402281,2.524906 -1.094657,3.967137 0.319607,1.498164 1.386299,3.220055 2.952379,4.758165 1.230492,1.210516 2.876473,2.508924 4.234809,3.33591 l 0.275662,0.167795 0.583285,-0.395514 c 1.645983,-1.110641 3.060249,-2.265221 4.166891,-3.403828 1.442233,-1.474193 2.305174,-2.864487 2.652748,-4.250789 0.12784,-0.511374 0.171789,-1.334364 0.09588,-1.757846 -0.251692,-1.414261 -1.282428,-2.716668 -2.540885,-3.200076 -0.495394,-0.191764 -0.890907,-0.263677 -1.434242,-0.263677 -1.030736,0 -1.889682,0.343582 -2.652747,1.062699 -0.271668,0.255686 -0.667183,0.72711 -0.842967,1.00277 -0.03196,0.05195 -0.05193,0.05593 -0.06392,0.02397 -0.05992,-0.139827 -0.639216,-0.866935 -0.838971,-1.046717 -0.563309,-0.515366 -1.138604,-0.803013 -1.913655,-0.958822 -0.495391,-0.09988 -0.914878,-0.127839 -1.278432,-0.0839 z"
     id="path1-7"
     style="fill:#ff0000;stroke-width:0.00399509"
     inkscape:label="corazon" />
  <g
     id="g2"
     style="display:inline"
     inkscape:label="g2"
     transform="matrix(0.21344206,0,0,0.21344206,129.07158,70.14629)">
    <path
       style="display:inline;fill:#550000;stroke-linejoin:round"
       d="m 131.22617,62.964201 c -0.64157,-0.06825 -1.59865,0.05837 -2.89648,0.785157 -1.32426,0.741584 -1.65697,1.792655 -1.62305,2.626953 0.0337,0.828882 0.40147,1.456622 0.40625,1.464843 0.008,0.02625 0.0463,0.154714 0.17383,0.347657 0.13989,0.211587 0.37425,0.480878 0.74804,0.71875 0.7476,0.475744 2.04267,0.819174 4.23633,0.40625 1.10544,-0.208082 1.77765,-0.557676 2.15235,-1.001953 0.37469,-0.444277 0.42239,-0.97281 0.31836,-1.4375 -0.20807,-0.92938 -0.97071,-1.691407 -0.97071,-1.691407 -0.33143,-0.428802 -0.7209,-0.884625 -1.02734,-1.236328 -0.1552,-0.178122 -0.29004,-0.329455 -0.38086,-0.435547 -0.0454,-0.05305 -0.0802,-0.09613 -0.0996,-0.121093 -0.01,-0.01248 -0.016,-0.02132 -0.0137,-0.01758 10e-4,0.0019 0.005,0.0041 0.0137,0.0293 10e-4,0.0034 0.002,0.0076 0.004,0.01367 a 0.18899539,0.18899539 0 0 0 -0.0586,-0.101562 c 0,0 -0.0956,-0.07958 -0.25781,-0.15625 -0.16226,-0.07667 -0.40383,-0.159233 -0.72461,-0.19336 z m -0.0391,0.375 c 0.27688,0.02945 0.47452,0.100128 0.60156,0.160157 0.11255,0.05318 0.14286,0.08183 0.15235,0.08984 0.007,0.01066 0.0148,0.02215 0.0234,0.0332 0.0273,0.03508 0.0644,0.07795 0.11133,0.132813 0.0939,0.109732 0.22827,0.262089 0.38281,0.439453 0.30907,0.354728 0.70259,0.812892 1.02734,1.234375 a 0.18899539,0.18899539 0 0 0 0.0137,0.01758 c 0,0 0.69963,0.737124 0.87305,1.511719 0.0867,0.387298 0.0546,0.762066 -0.23828,1.109375 -0.29291,0.347309 -0.87532,0.676163 -1.93164,0.875 -2.12986,0.400915 -3.31366,0.05892 -3.96485,-0.355469 -0.32559,-0.207196 -0.52033,-0.434343 -0.63476,-0.607422 -0.11444,-0.173078 -0.14453,-0.277343 -0.14453,-0.277343 a 0.18899539,0.18899539 0 0 0 -0.0176,-0.04101 c 0,0 -0.32581,-0.569029 -0.35547,-1.298828 -0.0297,-0.729799 0.2107,-1.60057 1.42968,-2.283203 1.24542,-0.697432 2.11812,-0.799145 2.67188,-0.740235 z m 1.08203,0.09375 c 3.1e-4,0.009 0.002,0.04327 0.002,0.04297 2e-5,-2.09e-4 -0.009,0.02641 -0.0176,0.05078 a 0.18899539,0.18899539 0 0 0 0.0156,-0.09375 z m -0.0254,0.121094 c -2.5e-4,7.46e-4 -0.002,0.0059 -0.002,0.0059 1.5e-4,-2.28e-4 -0.0842,0.07238 -0.084,0.07227 a 0.18899539,0.18899539 0 0 0 0.0859,-0.07813 z"
       id="path19-7" />
    <path
       style="display:inline;fill:#550000;stroke-linejoin:round"
       d="m 149.7789,42.597014 c -0.52439,0.136522 -1.01883,0.423665 -1.44922,0.74414 -0.85845,0.639224 -1.4674,1.413778 -1.4707,1.417969 0,0 -0.46322,0.552606 -0.72266,1.25 -0.12972,0.348697 -0.21085,0.739587 -0.14453,1.126953 0.0663,0.387367 0.29304,0.763627 0.73242,1.035157 1.63298,1.009142 3.29883,1.353515 3.29883,1.353515 a 0.18899539,0.18899539 0 0 0 0.0312,0.0039 c 0,0 0.58539,0.02232 1.17383,-0.289062 0.58844,-0.311383 1.17969,-0.985984 1.17969,-2.255859 0,-1.189621 0.23437,-1.883654 0.23437,-2.498047 0,-0.307197 -0.0708,-0.601712 -0.26953,-0.875 -0.19875,-0.273289 -0.51177,-0.526566 -0.99023,-0.816407 -0.51517,-0.312071 -1.07913,-0.333788 -1.60352,-0.197265 z m 0.0957,0.365234 c 0.45346,-0.118056 0.89253,-0.09816 1.3125,0.15625 0.45668,0.27664 0.72699,0.505951 0.87891,0.714844 0.15192,0.208893 0.19922,0.397557 0.19922,0.652344 0,0.509574 -0.23438,1.259899 -0.23438,2.498047 0,1.157889 -0.48794,1.662281 -0.97851,1.921875 -0.4837,0.255958 -0.95716,0.242516 -0.9707,0.242187 -0.0179,-0.0038 -1.59891,-0.335214 -3.15821,-1.298828 -0.36088,-0.223016 -0.51054,-0.485272 -0.56054,-0.777344 -0.05,-0.292071 0.0136,-0.621693 0.1289,-0.93164 0.23061,-0.619895 0.6582,-1.138672 0.6582,-1.138672 a 0.18899539,0.18899539 0 0 0 0.002,-0.0039 c 0,0 0.5926,-0.747158 1.40429,-1.351562 0.40585,-0.302202 0.8649,-0.565538 1.31836,-0.683594 z"
       id="path25-6" />
    <path
       style="display:inline;fill:#550000;stroke-linejoin:round"
       d="m 149.63437,68.602873 c -0.61823,-0.113342 -1.34812,-0.01702 -2.29492,0.16211 -0.95092,0.179905 -1.72681,0.40296 -2.26563,0.701171 -0.2694,0.149106 -0.48286,0.317298 -0.62109,0.523438 -0.13705,0.204382 -0.18714,0.45148 -0.13477,0.699219 0.001,0.01805 0.0176,0.300142 0.17188,0.75 0.15908,0.46398 0.45988,1.09685 1.02148,1.789062 1.13255,1.395925 2.56145,1.756935 3.51172,1.658203 0.35329,-0.0367 0.65429,-0.324488 0.95899,-0.71289 0.30469,-0.388402 0.59788,-0.896311 0.83789,-1.441407 0.24,-0.545095 0.42678,-1.126447 0.5039,-1.658203 0.0771,-0.531755 0.054,-1.021663 -0.17773,-1.384765 -0.40096,-0.628165 -0.89349,-0.972595 -1.51172,-1.085938 z m -0.0684,0.371094 c 0.52623,0.09647 0.8997,0.350808 1.26172,0.917969 0.14972,0.23456 0.1914,0.644158 0.12109,1.128906 -0.0703,0.484748 -0.2457,1.038705 -0.4746,1.558594 -0.22891,0.519889 -0.51081,1.006625 -0.78907,1.361328 -0.27826,0.354703 -0.56488,0.556153 -0.70116,0.570312 -0.81686,0.08487 -2.12505,-0.221567 -3.1797,-1.521484 -0.53198,-0.655708 -0.80897,-1.247672 -0.95507,-1.673828 -0.14612,-0.426156 -0.16016,-0.671875 -0.16016,-0.671875 a 0.18899539,0.18899539 0 0 0 -0.004,-0.0293 c -0.0344,-0.157034 -0.008,-0.280043 0.082,-0.414063 0.0899,-0.134019 0.25417,-0.273645 0.49024,-0.404296 0.47212,-0.261303 1.22127,-0.484008 2.15234,-0.660157 0.93519,-0.176929 1.63002,-0.258584 2.15625,-0.162109 z"
       id="path21-1" />
    <path
       style="display:inline;stroke-linejoin:round"
       d="m 143.23594,54.366545 c -1.96429,0 -3.57813,1.44441 -3.57813,3.246094 0,1.801684 1.61384,3.246094 3.57813,3.246094 1.96428,0 3.58007,-1.44441 3.58007,-3.246094 0,-1.801684 -1.61579,-3.246094 -3.58007,-3.246094 z m 0,0.378906 c 1.78007,0 3.20116,1.291993 3.20116,2.867188 0,1.575195 -1.42109,2.86914 -3.20116,2.86914 -1.78008,0 -3.19922,-1.293945 -3.19922,-2.86914 0,-1.575195 1.41914,-2.867188 3.19922,-2.867188 z"
       id="path29-4" />
    <path
       style="display:inline;fill:#550000;stroke-linejoin:round"
       d="m 131.77305,46.198576 c -0.84873,0.0012 -1.58359,0.265619 -2.1875,0.644532 -0.65451,0.410657 -1.20849,0.79136 -1.48829,1.300781 -0.27979,0.50942 -0.22344,1.135136 0.2754,1.865234 0.16694,0.244338 0.41608,0.781572 0.625,1.244141 0.10445,0.231284 0.2002,0.446207 0.27734,0.605469 0.0386,0.07963 0.0719,0.144744 0.10351,0.197265 0.0158,0.02626 0.0297,0.04792 0.0527,0.07422 0.0115,0.01315 0.0252,0.02715 0.0527,0.04492 0.002,0.0014 0.007,0.0024 0.01,0.0039 0.0423,0.0638 0.5554,0.852809 1.35547,1.380859 0.41603,0.274578 0.90772,0.47235 1.42774,0.400391 0.52002,-0.07196 1.0392,-0.419841 1.49023,-1.138672 1.72479,-2.748872 1.37943,-2.054002 1.9336,-2.792969 l -0.006,0.0059 c 0,0 0.30679,-0.37849 0.31445,-0.9375 0.008,-0.55901 -0.29673,-1.287289 -1.36719,-1.966797 -1.05843,-0.671875 -2.02041,-0.932815 -2.86914,-0.931641 z m 0,0.365235 c 0.772,-0.0012 1.6583,0.245799 2.66796,0.886718 0.99765,0.633286 1.19724,1.216994 1.19141,1.642579 -0.006,0.425584 -0.23047,0.703125 -0.23047,0.703125 a 0.18899539,0.18899539 0 0 0 -0.004,0.0059 c -0.5307,0.70769 -0.22313,0.06429 -1.95117,2.818359 -0.41218,0.656906 -0.82694,0.910357 -1.2207,0.964844 -0.39377,0.05449 -0.79722,-0.09515 -1.16797,-0.339844 -0.74151,-0.489431 -1.3047,-1.330119 -1.3047,-1.330119 a 0.18899539,0.18899539 0 0 0 -0.20312,-0.07813 c -6.8e-4,1.69e-4 0.0515,-0.0058 0.0508,-0.0059 -7.4e-4,-2.6e-5 0.0295,0.0027 0.041,0.0059 0.023,0.0063 0.0368,0.01499 0.0469,0.02148 0.0201,0.013 0.0251,0.01892 0.0273,0.02148 0.005,0.0051 -0.004,-0.0033 -0.0137,-0.01953 -0.0195,-0.03239 -0.0516,-0.09307 -0.0879,-0.167969 -0.0726,-0.1498 -0.16666,-0.363618 -0.27148,-0.595703 -0.20965,-0.46417 -0.45098,-0.994615 -0.66016,-1.300781 -0.45422,-0.664798 -0.46697,-1.082772 -0.25391,-1.470704 0.21307,-0.387931 0.71352,-0.758105 1.35743,-1.162109 0.55613,-0.348933 1.21432,-0.598414 1.98632,-0.599609 z"
       id="path23-2" />
    <path
       style="display:inline;fill:#550000;stroke-linejoin:round"
       d="m 156.22812,53.927092 c -1.19261,0.149909 -2.02539,0.783203 -2.02539,0.783203 a 0.18899539,0.18899539 0 0 0 -0.0254,0.02344 c -0.61218,0.674785 -0.71754,1.62372 -0.65234,2.5625 0.0652,0.938779 0.30456,1.888738 0.42968,2.595703 0.0671,0.379236 0.2269,0.656296 0.4336,0.839843 0.20669,0.183548 0.45158,0.271557 0.67773,0.308594 0.45128,0.07391 0.85168,-0.04633 0.85352,-0.04687 h 0.002 c 0.50006,-0.09786 2.29048,-0.342472 3.63868,-1.046875 0.67695,-0.353698 1.25824,-0.829346 1.48241,-1.49414 0.22419,-0.664794 0.0621,-1.480293 -0.64647,-2.431641 -1.40603,-1.887721 -2.97536,-2.243659 -4.16797,-2.09375 z m 0.0469,0.375 c 1.0836,-0.136206 2.47573,0.143373 3.81641,1.943359 0.66476,0.892505 0.77132,1.55938 0.59375,2.085938 -0.17757,0.526558 -0.66956,0.951451 -1.30077,1.28125 -1.26245,0.659598 -3.01182,0.909164 -3.55079,1.015625 a 0.18899539,0.18899539 0 0 0 -0.0156,0.002 c 0,0 -0.34012,0.09464 -0.6914,0.03711 -0.17564,-0.02876 -0.34781,-0.09401 -0.48828,-0.21875 -0.14048,-0.124744 -0.25741,-0.311775 -0.3125,-0.623047 -0.1292,-0.72997 -0.36186,-1.662329 -0.42383,-2.554687 -0.0614,-0.884769 0.053,-1.707104 0.54883,-2.265625 0.014,-0.01058 0.75078,-0.568196 1.82421,-0.703125 z"
       id="path17-3" />
    <path
       id="path4-2"
       style="display:inline;stroke-width:4.22037;stroke-linejoin:round;stroke-dasharray:none"
       d="m 151.30429,18.852873 c -1.02591,0.02365 -2.09644,0.159122 -3.24609,0.433594 -0.003,6.08e-4 -0.005,0.0013 -0.008,0.002 -5.05686,1.398701 -7.37695,1.394531 -7.37695,1.394531 -0.003,-8.8e-5 -0.007,-8.8e-5 -0.01,0 0,0 -2.42187,0.127001 -4.9375,1.357422 -2.50413,1.224797 -5.11776,3.574782 -5.50196,7.947266 -0.69307,-0.185987 -1.46559,-0.319323 -2.33007,-0.376953 -0.004,-1.21e-4 -0.008,-1.21e-4 -0.0117,0 0,0 -0.67125,-0.0033 -1.46094,-0.119141 -0.78969,-0.115831 -1.69235,-0.362842 -2.11133,-0.759766 -0.53727,-0.509012 -1.85222,-1.188863 -3.69922,-1.257812 -1.84411,-0.06884 -4.20427,0.498403 -6.75976,2.513672 -2.33418,1.352197 -3.83664,3.115509 -5.3125,5.154297 -0.38335,0.489847 -1.06393,1.043387 -1.625,2.240234 -0.56251,1.19989 -1.0041,3.042864 -0.97852,6.164063 -0.37746,3.967265 -0.10744,7.830695 0.47656,11.732422 0.001,0.0059 0.002,0.01179 0.004,0.01758 0.14112,0.568568 0.76019,1.38063 1.73242,2.070312 0.87776,0.62266 2.05175,1.11624 3.41016,1.107422 -0.63099,0.606943 -1.21541,1.362537 -1.71289,2.304688 -1.61056,3.050157 -2.41173,4.698056 -2.8125,5.58789 -0.20038,0.444917 -0.30188,0.700062 -0.35352,0.84961 -0.0258,0.07477 -0.0389,0.123634 -0.0469,0.158203 -0.002,0.01046 -0.002,0.01887 -0.004,0.02734 -0.0176,0.03624 -0.3009,0.613011 -0.46484,1.123047 -0.0305,0.09479 -0.18867,0.530805 -0.35156,1.179688 -0.16289,0.648883 -0.33536,1.524986 -0.4082,2.548828 -0.1457,2.047683 0.10482,4.693007 1.62109,7.287109 1.49872,2.564069 2.10231,3.006851 2.60547,3.472656 0.25158,0.232906 0.47766,0.468463 0.81445,1.011719 0.33679,0.543256 0.77746,1.392249 1.42774,2.81836 1.34187,2.942877 4.4509,4.100084 7.18945,4.527343 2.73855,0.42726 5.14453,0.13086 5.14453,0.13086 0.0126,-0.0014 0.025,-0.004 0.0371,-0.0078 0,0 0.42384,-0.142778 0.9375,-0.296875 0.51366,-0.154096 1.12442,-0.320239 1.45312,-0.361328 0.0842,-0.01052 0.15802,-0.03842 0.25977,-0.08008 0.10175,-0.04166 0.22415,-0.09824 0.36523,-0.167969 0.28218,-0.139459 0.64,-0.332571 1.04883,-0.564453 0.81766,-0.463763 1.83671,-1.081106 2.82813,-1.728516 0.99141,-0.647407 1.95545,-1.323014 2.66797,-1.904296 0.35625,-0.290642 0.64894,-0.557976 0.85547,-0.792969 0.0953,-0.108469 0.16992,-0.208704 0.22656,-0.308594 1.08788,1.523614 2.67054,2.836562 4.07617,3.996094 1.41077,1.163778 2.63676,2.195032 2.99414,3.021484 0.10852,0.250957 0.3411,0.54288 0.66797,0.88086 0.32687,0.337979 0.74904,0.712907 1.23242,1.085937 0.96678,0.746061 2.17608,1.482301 3.35938,1.861328 1.18309,0.378959 2.25846,0.372422 3.46289,0.347656 1.20443,-0.02476 2.54366,-0.06994 4.29688,0.214844 1.88702,0.306522 4.51196,-0.995061 6.81836,-2.435547 2.30639,-1.440485 4.27456,-3.041919 4.73632,-3.43164 0.3732,-0.314971 1.64784,-1.542607 2.95313,-2.990235 1.29658,-1.437972 2.60112,-3.058 3.03906,-4.238281 1.32214,-1.945955 1.02033,-3.712889 0.33008,-5.298828 -0.674,-1.548603 -1.67814,-2.969082 -1.93359,-4.341797 0.0261,-0.01562 0.0403,-0.02878 0.0684,-0.04492 0.63288,-0.364717 1.75902,-0.838527 3.82226,-1.484375 2.0012,-0.626427 3.36568,-1.936951 4.39258,-3.195312 1.0269,-1.258361 1.74816,-2.472207 2.34766,-2.890625 1.79866,-1.255365 2.3992,-4.005565 2.18359,-6.16211 -0.1356,-1.356291 -0.30168,-2.210233 -0.4375,-2.730468 -0.11771,-0.450851 -0.20706,-0.632287 -0.23242,-0.681641 v -0.002 c -1.06545,-3.904883 -1.25754,-6.865308 -2.79297,-10.929688 -1.84675,-4.88843 -4.9707,-9.039062 -4.9707,-9.039062 -0.004,-0.0048 -0.009,-0.0093 -0.0137,-0.01367 0,0 -1.02834,-1.121123 -2.48047,-1.8125 -0.72606,-0.345689 -1.5637,-0.58773 -2.4375,-0.517578 -0.69822,0.05606 -1.41517,0.320603 -2.09765,0.871094 0.17923,-1.180335 0.1721,-2.410397 -0.0957,-3.667969 -0.82923,-3.893766 -1.60891,-6.129521 -2.81055,-7.626953 -1.20086,-1.49645 -2.80433,-2.219062 -5.19922,-3.101563 l -0.004,-0.002 c -3.11539,-1.211935 -5.78111,-2.147088 -8.85742,-2.076172 z m 0.0137,0.375 c 3.00246,-0.07123 5.59812,0.844415 8.70899,2.054688 0.001,6.82e-4 0.003,0.0013 0.004,0.002 2.3861,0.879088 3.90286,1.568485 5.03907,2.984375 1.1362,1.41589 1.91107,3.593657 2.73632,7.46875 0.29344,1.377891 0.25836,2.723737 0.004,4.009766 -0.0157,0.01623 -0.0313,0.03029 -0.0469,0.04687 l 0.0332,0.03125 c -0.45954,2.23923 -1.59122,4.291193 -2.86524,5.992188 -1.0095,1.347826 -2.105,2.472473 -3.01171,3.289062 -0.45336,0.408296 -0.85997,0.741121 -1.1836,0.984376 -0.32363,0.243254 -0.57262,0.401663 -0.67383,0.449218 -0.58103,0.273017 -1.39625,0.962949 -2.09375,1.59375 -0.6975,0.630801 -1.26171,1.199219 -1.26172,1.199219 -0.0104,0.0106 -0.0196,0.02241 -0.0273,0.03516 -1.81481,3.002689 -5.64941,3.613773 -6.07226,3.673828 -0.11446,-0.271778 -0.10842,-0.555809 -0.12696,-0.884765 -0.0228,-0.404293 -0.11042,-0.874434 -0.58203,-1.28711 -0.33189,-0.290401 -0.78536,-0.337034 -1.21875,-0.363281 -0.43339,-0.02625 -0.86115,-0.03193 -1.13867,-0.138672 -0.52009,-0.200034 -1.05962,-0.560472 -1.625,-0.884765 -0.56538,-0.324294 -1.16325,-0.616082 -1.81835,-0.638672 -0.37052,-0.01278 -0.68778,0.170392 -0.97071,0.318359 -0.28292,0.147967 -0.52569,0.25581 -0.71289,0.224609 -0.167,-0.02783 -0.31861,-0.206387 -0.52344,-0.443359 -0.1377,-0.159306 -0.30677,-0.336685 -0.5332,-0.451172 0.0102,-0.339568 0.13022,-5.624133 -2.55664,-9.033203 -1.34989,-1.712728 -2.10535,-2.890371 -2.52148,-3.634766 -0.41614,-0.744393 -0.48829,-1.035156 -0.48829,-1.035156 0,-6.67e-4 0,-0.0013 0,-0.002 0,-6.67e-4 0,-0.0013 0,-0.002 0,0 -0.33309,-1.199118 -1.48632,-2.435547 -0.80419,-0.862197 -2.01377,-1.747894 -3.78125,-2.279297 l 0.0703,0.0059 c 0.35401,-4.274762 2.86001,-6.504415 5.29882,-7.697266 2.43882,-1.192851 4.79102,-1.318359 4.79102,-1.318359 0.0126,-2.5e-5 2.39604,-0.0074 7.46289,-1.408203 1.12553,-0.268713 2.17105,-0.402038 3.17187,-0.425782 z m -30.72265,8.625 c 1.75869,0.06565 3.02592,0.747727 3.45508,1.154297 0.54746,0.518644 1.49542,0.737286 2.31445,0.857422 0.81275,0.119213 1.49334,0.122989 1.50391,0.123047 3.18538,0.212352 5.06464,1.446551 6.16016,2.621094 1.09551,1.174543 1.39648,2.277343 1.39648,2.277343 2.7e-4,10e-4 0.0957,0.357904 0.52344,1.123047 0.42834,0.766237 1.19511,1.958575 2.55468,3.683594 2.48928,3.158374 2.48175,8.092766 2.47266,8.6875 -0.26622,-0.02684 -0.48636,0.134678 -0.73828,0.341797 -0.25378,0.208652 -0.52781,0.490181 -0.79883,0.787109 -0.54204,0.593857 -1.08167,1.263618 -1.32226,1.492188 -0.25023,0.237715 -0.43836,0.389103 -0.57227,0.470703 -0.13391,0.0816 -0.20121,0.08823 -0.23828,0.08203 -0.0371,-0.0062 -0.0813,-0.03187 -0.1543,-0.109375 -0.073,-0.07751 -0.16446,-0.196292 -0.28515,-0.328125 -0.0428,-0.04677 -0.1149,-0.09361 -0.19922,-0.09375 -0.0843,-1.42e-4 -0.14803,0.04165 -0.18946,0.08008 -0.0828,0.07686 -0.12425,0.162278 -0.17187,0.267578 -0.0952,0.210602 -0.18788,0.495488 -0.29492,0.771485 -0.10705,0.275997 -0.23129,0.543228 -0.34961,0.685547 -0.0592,0.07116 -0.11321,0.106582 -0.14844,0.117187 -0.0352,0.0106 -0.0599,0.01225 -0.125,-0.02734 -0.11929,-0.0725 -0.23155,-0.138057 -0.38281,-0.07227 -0.0756,0.0329 -0.12719,0.105655 -0.14649,0.166015 -0.0193,0.06036 -0.0191,0.114799 -0.0156,0.167969 0.0137,0.212682 0.1065,0.463019 0.21485,0.751953 0.10834,0.288934 0.23586,0.602381 0.32226,0.859375 0.0432,0.128497 0.0759,0.24322 0.0918,0.328125 0.0159,0.0849 3.8e-4,0.140744 0.0117,0.115235 -0.0529,0.119077 -0.13408,0.178786 -0.26758,0.232422 -0.13349,0.05364 -0.31269,0.0878 -0.5,0.132812 -0.1873,0.04501 -0.38692,0.101015 -0.55859,0.238281 -0.17167,0.137267 -0.29545,0.359362 -0.32227,0.654297 -0.0158,0.17373 0.0525,0.324936 0.13477,0.449219 0.068,0.102726 0.14781,0.191181 0.22266,0.275391 -0.44092,-0.100385 -1.16324,-0.254413 -2.23243,-0.40625 -1.52986,-0.217259 -3.41951,-0.361981 -4.90234,-0.04688 -2.79583,0.594116 -7.05674,-0.354395 -7.07031,-0.357421 l -0.008,-0.002 c -0.006,-0.0016 -0.42743,-0.11206 -1.11719,-0.185547 -0.69465,-0.07401 -1.65357,-0.108531 -2.71484,0.05078 -1.33529,0.200446 -2.83949,0.713598 -4.17774,1.833984 l -0.002,-0.02148 c -1.44237,0.126535 -2.68658,-0.374368 -3.60156,-1.023438 -0.91395,-0.648336 -1.48979,-1.473493 -1.58398,-1.849609 -0.58047,-3.883617 -0.8466,-7.71774 -0.47071,-11.646484 3.4e-4,-0.0065 3.4e-4,-0.01302 0,-0.01953 -0.0253,-3.084323 0.4117,-4.865897 0.94336,-6 0.53167,-1.134102 1.15718,-1.624119 1.58594,-2.173828 10e-4,-0.0013 0.003,-0.0026 0.004,-0.0039 1.46839,-2.028455 2.92553,-3.743528 5.20508,-5.060547 0.008,-0.004 0.0159,-0.0086 0.0234,-0.01367 2.49843,-1.974237 4.7628,-2.503152 6.52148,-2.4375 z m 49.80468,6.980469 c 0.78518,-0.06304 1.5585,0.155978 2.24414,0.482422 1.37002,0.652279 2.36144,1.722611 2.36329,1.724609 l 0.002,0.002 c 0.0188,0.02499 3.09186,4.121727 4.9082,8.929688 1.51786,4.017827 1.70567,6.957137 2.78125,10.898437 0.005,0.01576 0.0111,0.03086 0.0195,0.04492 0,0 0.0815,0.136981 0.21094,0.632813 0.12945,0.495831 0.29559,1.332599 0.42969,2.673828 0.20527,2.053063 -0.41143,4.687998 -2.02539,5.814453 -0.74867,0.522523 -1.41928,1.728016 -2.42383,2.958984 -1.00455,1.230968 -2.30834,2.479999 -4.21289,3.076172 -2.07594,0.649826 -3.21896,1.125181 -3.89648,1.515625 -0.67755,0.390444 -0.89902,0.721803 -1.05469,0.982422 -0.15567,0.260619 -0.2359,0.435862 -0.77539,0.710938 -0.53949,0.275075 -1.5305,0.617486 -3.41602,1.085937 -1.36827,0.339944 -2.75842,-0.263959 -4.03906,-1.259766 -1.28064,-0.995806 -2.43277,-2.37329 -3.30078,-3.509765 -1.7447,-2.284284 -2.73664,-3.585342 -3.93555,-4.15625 -0.23365,-0.111265 -0.65161,-0.452887 -1.10742,-0.894531 -0.45581,-0.441645 -0.96221,-0.985456 -1.43359,-1.511719 -0.83182,-0.928617 -1.38227,-1.603553 -1.54102,-1.796875 0.45135,-0.342489 0.94311,-0.783916 1.24414,-1.486328 0.24725,-0.576916 0.17247,-1.195923 0.0898,-1.78125 -0.0826,-0.585327 -0.17326,-1.141983 -0.0469,-1.605469 0.0813,-0.298063 0.30786,-0.544664 0.56641,-0.814453 0.25852,-0.26979 0.54867,-0.563293 0.67382,-0.980469 0.11307,-0.37689 0.0686,-0.739935 -0.0664,-1.0625 -0.13502,-0.322565 -0.35442,-0.609684 -0.59961,-0.876953 -0.4267,-0.465114 -0.93265,-0.881393 -1.23242,-1.244141 0.80888,-0.127777 4.34481,-0.825619 6.16015,-3.796875 0.0148,-0.01485 0.55664,-0.559133 1.23633,-1.173828 0.689,-0.623113 1.52559,-1.310287 2,-1.533203 0.16265,-0.07643 0.40826,-0.239235 0.74219,-0.490234 0.33393,-0.250999 0.74776,-0.588532 1.20898,-1.003907 0.92244,-0.830745 2.03291,-1.971704 3.06055,-3.34375 1.29001,-1.722348 2.452,-3.813524 2.92969,-6.111328 0.73443,-0.728383 1.49307,-1.039937 2.23632,-1.099609 z m -29.45898,13.921875 c 0.2915,0.03239 0.46982,0.210815 0.66407,0.435547 0.19425,0.224732 0.39129,0.511176 0.74609,0.570312 0.3537,0.05895 0.66531,-0.114168 0.95117,-0.263671 0.28586,-0.149502 0.55095,-0.28138 0.78125,-0.273438 0.54978,0.01896 1.0935,0.272948 1.64258,0.587891 0.54907,0.314943 1.09873,0.687462 1.67773,0.910156 0.38351,0.147503 0.83537,0.13688 1.25195,0.162109 0.41659,0.02523 0.78318,0.08689 0.99414,0.271485 0.38898,0.340366 0.43194,0.647355 0.45313,1.023437 0.0212,0.376082 -0.004,0.821543 0.28711,1.257813 0.32891,0.493362 0.92958,0.948791 1.38867,1.449218 0.22955,0.250214 0.42243,0.507613 0.53125,0.767579 0.10882,0.259967 0.13984,0.518359 0.0527,0.808593 -0.0921,0.306986 -0.32692,0.555876 -0.58594,0.826172 -0.25903,0.270296 -0.54331,0.562436 -0.65625,0.976563 -0.15735,0.576874 -0.0443,1.1809 0.0371,1.757812 0.0814,0.576913 0.13255,1.120496 -0.0645,1.580078 -0.27638,0.6449 -0.731,1.041775 -1.17968,1.376953 -0.44868,0.335179 -0.90375,0.592641 -1.11914,1.023438 -0.27224,0.544469 -0.20437,1.15161 -0.26563,1.642578 -0.0306,0.245484 -0.0885,0.457664 -0.20898,0.632813 -0.12052,0.175149 -0.30688,0.322996 -0.63868,0.433593 -0.48463,0.161545 -1.02166,0.08836 -1.57421,-0.0625 -0.55256,-0.150859 -1.10893,-0.376864 -1.63672,-0.482422 -0.20922,-0.04184 -0.42278,0.01529 -0.65234,0.0957 -0.22956,0.08042 -0.47335,0.193337 -0.70508,0.302735 -0.23173,0.109398 -0.45307,0.215231 -0.625,0.28125 -0.086,0.03301 -0.15937,0.0555 -0.20898,0.06445 -0.0496,0.009 -0.0686,-0.0021 -0.0449,0.0098 -0.10612,-0.05306 -0.18479,-0.171482 -0.2754,-0.328125 -0.0906,-0.156644 -0.19027,-0.353928 -0.4082,-0.462891 -0.18121,-0.0906 -0.33765,-0.02996 -0.51367,0.02734 -0.17602,0.0573 -0.37257,0.141735 -0.57813,0.220703 -0.4111,0.157936 -0.85301,0.276858 -1.10937,0.191406 -0.20989,-0.06996 -0.38704,-0.301085 -0.59375,-0.574219 -0.20671,-0.273134 -0.45218,-0.587655 -0.85938,-0.689453 -5.8e-4,-1.45e-4 -0.0305,-0.0055 -0.041,-0.0059 -0.0105,-3.72e-4 -0.0186,-5.78e-4 -0.0254,0 -0.0137,0.0012 -0.0232,0.0041 -0.0312,0.0059 -0.0161,0.0034 -0.0267,0.0058 -0.0391,0.0098 -0.0247,0.0079 -0.0512,0.01753 -0.082,0.0293 -0.0616,0.02354 -0.14107,0.05575 -0.23437,0.0918 -0.1866,0.0721 -0.42796,0.160923 -0.66602,0.222656 -0.23805,0.06173 -0.47421,0.09299 -0.6289,0.07031 -0.0773,-0.01134 -0.13039,-0.03343 -0.16406,-0.06055 -0.0337,-0.02712 -0.0566,-0.05863 -0.0703,-0.126953 -0.0539,-0.269286 0.0516,-0.683242 0.15429,-1.109375 0.10266,-0.426132 0.20777,-0.879322 0.01,-1.27539 -0.0593,-0.118556 -0.16953,-0.176926 -0.27344,-0.210938 -0.1039,-0.03401 -0.21535,-0.04874 -0.33789,-0.05859 -0.24507,-0.01971 -0.53096,-0.01583 -0.79687,-0.0293 -0.26591,-0.01347 -0.51052,-0.05096 -0.64844,-0.119141 -0.069,-0.03409 -0.10976,-0.06863 -0.13281,-0.109375 -0.023,-0.04075 -0.037,-0.09472 -0.0234,-0.189453 0.0535,-0.374239 0.31996,-0.598386 0.64844,-0.847656 0.32847,-0.24927 0.72331,-0.510451 0.84179,-0.984375 0.0222,-0.08877 -0.0195,-0.166795 -0.0508,-0.205078 -0.0313,-0.03828 -0.0612,-0.05842 -0.0937,-0.08008 -0.065,-0.04332 -0.14239,-0.08203 -0.23437,-0.123047 -0.18396,-0.08203 -0.42619,-0.174071 -0.6836,-0.27539 -0.51481,-0.202637 -1.09594,-0.468418 -1.26562,-0.648438 -0.15771,-0.167328 -0.25571,-0.297549 -0.30273,-0.384765 -0.047,-0.08722 -0.0383,-0.115451 -0.0391,-0.113281 -7.4e-4,0.0022 0.004,-0.01247 0.0644,-0.03906 0.0601,-0.02659 0.16167,-0.05385 0.2832,-0.07813 0.48612,-0.0971 1.32394,-0.158386 1.72461,-0.826172 0.0916,-0.152693 0.0757,-0.337492 0.0137,-0.470703 -0.0621,-0.133211 -0.15525,-0.240369 -0.2461,-0.34375 -0.0909,-0.103381 -0.18039,-0.201636 -0.23828,-0.289063 -0.0579,-0.08743 -0.0789,-0.153163 -0.0742,-0.205078 0.0197,-0.216946 0.0857,-0.315872 0.18164,-0.392578 0.0959,-0.07671 0.24061,-0.126757 0.41211,-0.167968 0.1715,-0.04121 0.36412,-0.07344 0.55078,-0.148438 0.18666,-0.075 0.37394,-0.207563 0.47266,-0.429688 0.0544,-0.12236 0.0352,-0.224807 0.0137,-0.339843 -0.0216,-0.115037 -0.0593,-0.241661 -0.10547,-0.378907 -0.0923,-0.27449 -0.22042,-0.587116 -0.32617,-0.86914 -0.0901,-0.240393 -0.14085,-0.427341 -0.16406,-0.550781 0.12235,0.0582 0.25638,0.09234 0.375,0.05664 0.13658,-0.04111 0.24218,-0.132557 0.33008,-0.238281 0.17579,-0.211447 0.30042,-0.501117 0.4121,-0.789062 0.11169,-0.287946 0.20743,-0.575771 0.28711,-0.751954 0.0137,-0.03026 0.0147,-0.02845 0.0273,-0.05078 0.0664,0.07833 0.13207,0.157345 0.19727,0.226563 0.095,0.1008 0.2092,0.198209 0.36719,0.224609 0.15799,0.0264 0.32287,-0.02411 0.49804,-0.130859 0.17518,-0.106749 0.37498,-0.274682 0.63477,-0.521485 0.29709,-0.282231 0.81146,-0.930685 1.3418,-1.511719 0.26517,-0.290515 0.5318,-0.560619 0.75976,-0.748046 0.22803,-0.187483 0.42987,-0.263436 0.46289,-0.259766 z m -23.29882,7.777344 c 1.32356,-0.0068 2.24804,0.238281 2.24804,0.238281 0.003,7.25e-4 0.005,0.0014 0.008,0.002 0,0 4.28387,0.987189 7.23828,0.359375 1.39453,-0.296337 3.26215,-0.163562 4.77149,0.05078 1.36454,0.193781 2.32063,0.425155 2.51367,0.472657 -0.28639,0.454422 -0.94422,0.531168 -1.46289,0.634765 -0.13114,0.02619 -0.25177,0.05505 -0.36133,0.103516 -0.10955,0.04847 -0.22358,0.12867 -0.26953,0.263672 -0.046,0.135001 -0.009,0.277478 0.0644,0.414062 0.0736,0.136585 0.18912,0.284212 0.35938,0.464844 0.29946,0.317724 0.88208,0.537408 1.40234,0.742188 0.26013,0.10239 0.50368,0.193447 0.66992,0.267578 0.0439,0.01958 0.0625,0.03261 0.0937,0.04883 -0.10603,0.26124 -0.32993,0.467419 -0.63281,0.697265 -0.33669,0.255503 -0.71739,0.566644 -0.79297,1.095703 -0.0225,0.157596 -1e-4,0.306715 0.0684,0.427735 0.0685,0.121019 0.17614,0.205917 0.29297,0.263672 0.23366,0.115508 0.51369,0.143859 0.79687,0.158203 0.28319,0.01434 0.56978,0.01002 0.78516,0.02734 0.10769,0.0087 0.19769,0.02325 0.25195,0.04102 0.0543,0.01776 0.0592,0.03242 0.0527,0.01953 0.11595,0.231896 0.0609,0.604672 -0.0391,1.019532 -0.0999,0.41486 -0.2411,0.857001 -0.1582,1.271484 0.0283,0.141533 0.10157,0.263919 0.20313,0.345703 0.10155,0.08178 0.22398,0.124448 0.34765,0.142578 0.24734,0.03626 0.51711,-0.01209 0.7793,-0.08008 0.26218,-0.06799 0.51503,-0.160195 0.70703,-0.234375 0.096,-0.03709 0.17631,-0.07033 0.23242,-0.0918 0.007,-0.0027 0.009,-0.0035 0.0156,-0.0059 0.24624,0.0733 0.43243,0.27422 0.62695,0.53125 0.20175,0.266572 0.40952,0.581165 0.77539,0.703125 0.18023,0.06008 0.36813,0.0643 0.55665,0.03906 -0.0278,0.32769 -0.13863,0.750317 -0.35352,1.24414 -0.26452,0.60787 -0.6354,1.282722 -1.01172,1.908203 -0.75263,1.250962 -1.52539,2.306641 -1.52539,2.306641 -0.009,0.01028 -0.14008,0.162148 -0.2832,0.365234 -0.0739,0.104893 -0.14959,0.221488 -0.20899,0.337891 -0.0434,0.08512 -0.0627,0.174333 -0.0801,0.265625 -0.005,0.0069 -1.31416,1.954598 -2.15625,4.408203 -0.42178,1.228986 -0.72816,2.585785 -0.6875,3.896484 0.0366,1.177911 0.36481,2.32149 1.13868,3.277344 l -0.0117,0.002 c -3.8e-4,-0.0023 -6.2e-4,0.03912 -0.0371,0.107422 -0.0365,0.0683 -0.10221,0.159958 -0.19336,0.263672 -0.1823,0.207428 -0.46544,0.464903 -0.8125,0.748047 -0.69414,0.566287 -1.65025,1.237955 -2.63477,1.880859 -0.98452,0.642905 -1.99736,1.257783 -2.80664,1.716797 -0.40464,0.229507 -0.75938,0.42032 -1.03125,0.554688 -0.13594,0.06718 -0.25095,0.119848 -0.33984,0.15625 -0.0889,0.0364 -0.15834,0.05397 -0.16407,0.05469 -0.39063,0.04883 -0.99327,0.216929 -1.51367,0.373047 -0.50848,0.152544 -0.91063,0.28656 -0.92969,0.292969 -0.0241,0.0029 -2.35824,0.286909 -5.02343,-0.128906 -2.67898,-0.417964 -5.63857,-1.536634 -6.9043,-4.3125 -0.65353,-1.433262 -1.09953,-2.292151 -1.45117,-2.859376 -0.35165,-0.567222 -0.61571,-0.846185 -0.87891,-1.089843 -0.52639,-0.487317 -1.04861,-0.843482 -2.53515,-3.386719 -1.46899,-2.513203 -1.71221,-5.074211 -1.57032,-7.068359 0.071,-0.997074 0.23787,-1.850562 0.39649,-2.482422 0.15862,-0.63186 0.30395,-1.028297 0.3457,-1.158203 0.15468,-0.481213 0.45899,-1.107422 0.45899,-1.107422 0.01,-0.02088 0.0158,-0.04338 0.0176,-0.06641 -3.5e-4,0.0027 8e-5,0.002 0.002,-0.0059 0.004,-0.0158 0.0124,-0.05314 0.0352,-0.11914 0.0456,-0.132008 0.14234,-0.379839 0.33984,-0.81836 0.395,-0.877042 1.19425,-2.520168 2.80273,-5.566406 1.57086,-2.974971 3.98449,-4.008084 6.02539,-4.314453 0.51023,-0.07659 0.99632,-0.107099 1.4375,-0.109375 z m 32.2539,6.933594 c 0.15363,0.187153 0.71727,0.878893 1.56054,1.820312 0.475,0.530265 0.98477,1.079341 1.45118,1.53125 0.4664,0.451909 0.87616,0.806356 1.20898,0.964844 1.06701,0.508099 2.05277,1.761406 3.79688,4.044922 0.87637,1.147425 2.04412,2.546294 3.37109,3.578125 1.32697,1.03183 2.83231,1.705567 4.35937,1.326171 1.89687,-0.471265 2.90555,-0.811173 3.49805,-1.113281 0.59251,-0.302108 0.7754,-0.59847 0.92774,-0.853515 0.11123,-0.186223 0.21711,-0.360369 0.50976,-0.582032 0.31655,1.443788 1.29865,2.824107 1.92774,4.269532 0.66906,1.537259 0.95895,3.104194 -0.30274,4.949218 -0.009,0.01335 -0.0162,0.02779 -0.0215,0.04297 -0.38024,1.047761 -1.68622,2.705243 -2.98046,4.140625 -1.29426,1.435383 -2.59156,2.681231 -2.91602,2.955078 -0.44751,0.377688 -2.41005,1.975538 -4.69141,3.400391 -2.28137,1.424853 -4.90288,2.651762 -6.55859,2.382812 -1.78954,-0.290683 -3.16438,-0.24344 -4.36523,-0.21875 -1.20087,0.02469 -2.22105,0.02633 -3.33986,-0.332031 -1.11857,-0.358296 -2.30333,-1.07281 -3.24414,-1.798828 -0.47038,-0.363009 -0.88035,-0.729155 -1.1914,-1.050781 -0.31105,-0.321627 -0.52312,-0.608777 -0.59179,-0.767578 -0.43154,-0.99792 -1.68954,-1.998909 -3.09961,-3.16211 -1.41008,-1.1632 -2.97701,-2.467478 -4.02344,-3.939453 -0.005,-0.0076 -0.0112,-0.01476 -0.0176,-0.02148 -0.90276,-0.937311 -1.26611,-2.102188 -1.30469,-3.345703 -0.0386,-1.243516 0.25382,-2.560689 0.66602,-3.761719 0.82439,-2.402061 2.11523,-4.328125 2.11523,-4.328125 0.0213,-0.03106 0.0329,-0.06779 0.0332,-0.105469 0,-0.01819 0.0198,-0.100077 0.0664,-0.191406 0.0466,-0.09133 0.11423,-0.195363 0.18164,-0.291016 0.13484,-0.191306 0.26953,-0.347656 0.26953,-0.347656 0.004,-0.0044 0.008,-0.0089 0.0117,-0.01367 0,0 0.77992,-1.067651 1.54297,-2.335937 0.38153,-0.634143 0.75992,-1.318672 1.03516,-1.951172 0.24194,-0.555967 0.4031,-1.060354 0.41015,-1.490235 0.13791,-0.04318 0.27366,-0.09119 0.40235,-0.140625 0.21268,-0.08171 0.40945,-0.163701 0.56055,-0.21289 0.15109,-0.04919 0.25514,-0.03454 0.22656,-0.04883 0.0834,0.04172 0.15768,0.154842 0.25,0.314453 0.0923,0.15961 0.20602,0.362777 0.43359,0.476562 0.10095,0.05048 0.19255,0.0414 0.28125,0.02539 0.0887,-0.01601 0.18101,-0.04624 0.2793,-0.08398 0.19658,-0.07548 0.42071,-0.184537 0.65039,-0.292968 0.22968,-0.108432 0.46437,-0.215785 0.66797,-0.28711 0.2036,-0.07132 0.37856,-0.09694 0.45312,-0.08203 0.47401,0.0948 1.02977,0.317787 1.61133,0.476563 0.58155,0.158776 1.19793,0.254988 1.79297,0.05664 0.39126,-0.130419 0.66063,-0.333819 0.83008,-0.580078 0.16944,-0.246259 0.23902,-0.525004 0.27343,-0.800781 0.0688,-0.551555 0.0233,-1.105285 0.23047,-1.519531 0.11226,-0.224526 0.41327,-0.448908 0.76172,-0.705078 z"
       sodipodi:nodetypes="cccccscccsssccscccscssscccsssssssccsssssssscsssssssssscsccsssssccsccssccscccccccsscccssssscccssssssssscsscscsccscccccsscscsscssssssssccscscsscssscssssscssccssccscccscccccccsccsccsssssssssssssccsccssssccsssssccccssssssssscsscssscssscssssssccsssssssscccssssscscssssccssssssssccssccscssssccccssssccssssscccccsscssccssscssssscsccsssssscsscsscsccscccssssssscscssssscsscccsssscccsssssssscsccssssssssssccssccssccsscsscsssssssssssssc" />
    <g
       id="g26"
       inkscape:label="color"
       style="display:inline;fill:#ffffff">
      <path
         style="fill:#ffffff;stroke:none;stroke-width:0.271876"
         d="m 150.55762,52.363246 c 0,-1.269092 -0.71519,-1.937593 -2.0729,-1.937593 -0.50117,0 -0.97711,-0.174983 -2.15219,-0.791273 -1.67138,-0.876575 -2.15216,-0.956305 -3.29552,-0.546498 l -0.68689,0.246197 -0.43161,-0.431614 c -0.40773,-0.407731 -0.43974,-0.525218 -0.57853,-2.123229 -0.17741,-2.042824 -0.65443,-4.002802 -1.3226,-5.434356 -0.2726,-0.584048 -1.11878,-1.903532 -1.88039,-2.932186 -1.26535,-1.709025 -1.76778,-2.564324 -2.69948,-4.595419 -0.48593,-1.059306 -2.00181,-2.515599 -3.27833,-3.149456 -0.5843,-0.290137 -1.15078,-0.527522 -1.25884,-0.527522 -0.27039,0 -0.247,-0.475768 0.0877,-1.784534 0.41758,-1.632738 1.05247,-2.730058 2.29919,-3.97388 1.87015,-1.865801 4.5386,-2.9763 7.91895,-3.295549 1.84571,-0.174313 3.33695,-0.452709 5.97052,-1.114621 2.56543,-0.644789 5.03907,-0.789052 7.04952,-0.411128 2.61465,0.491504 7.63439,2.364611 9.29443,3.468207 1.16851,0.776822 2.06692,1.939848 2.73144,3.535942 0.54052,1.298251 1.523,5.068888 1.65405,6.348047 0.45065,4.398627 -3.11509,10.399225 -8.15101,13.716906 -0.93903,0.618633 -2.27799,1.85796 -4.10892,3.803156 -0.40591,0.431245 -1.09637,0.99906 -1.53436,1.261808 -0.86765,0.520507 -2.65688,1.176754 -3.20837,1.176754 -0.29999,0 -0.34589,-0.06743 -0.34589,-0.508159 z m 0.72313,-3.090472 c 0.83451,-0.425735 1.07064,-1.023855 1.28573,-3.256815 0.21064,-2.186764 0.13456,-2.449008 -0.90622,-3.123862 -1.21826,-0.789936 -2.64637,-0.408598 -4.19311,1.119651 -1.04664,1.034132 -1.5133,1.918903 -1.5133,2.869172 0,0.812544 0.29303,1.165751 1.45647,1.755581 1.86322,0.944594 2.92419,1.119011 3.87043,0.636273 z"
         id="path18" />
      <path
         style="fill:#ffffff;stroke:none;stroke-width:0.271876"
         d="m 163.10423,75.973666 c -1.64322,-0.784391 -3.00972,-2.103854 -5.52473,-5.334592 -1.31558,-1.68998 -2.52248,-2.916548 -3.22954,-3.282182 -0.43803,-0.226516 -3.33158,-3.15372 -3.75255,-3.796197 -0.21536,-0.328686 -0.20487,-0.367192 0.2194,-0.805569 0.75728,-0.782467 0.90648,-1.336743 0.79944,-2.970074 -0.0937,-1.429194 -0.0922,-1.43805 0.32281,-1.959013 0.72724,-0.91289 0.91891,-1.274155 0.91969,-1.7335 8.3e-4,-0.493291 -0.47124,-1.280193 -1.26059,-2.101294 -0.37252,-0.387505 -0.45774,-0.553063 -0.30968,-0.601587 0.11235,-0.03682 0.56953,-0.168265 1.01594,-0.292092 1.72824,-0.479385 3.25734,-1.517681 4.44327,-3.017082 0.7894,-0.998059 2.49163,-2.486581 3.76247,-3.290116 1.14514,-0.724058 3.53064,-3.053956 4.64477,-4.536501 1.28155,-1.705335 2.05961,-3.135328 2.66371,-4.895622 0.5114,-1.49017 0.5473,-1.547823 1.2248,-1.966774 1.36588,-0.844629 3.15959,-0.501847 5.04361,0.963841 0.98219,0.764107 2.63755,3.227638 4.16386,6.196729 1.672,3.252477 2.37112,5.330122 3.37564,10.031628 0.32967,1.542982 0.78745,3.485197 1.01728,4.316033 0.59391,2.146933 0.79739,3.932483 0.59074,5.18381 -0.29398,1.780118 -0.66849,2.538518 -1.88039,3.807926 -0.60434,0.633018 -1.46481,1.638779 -1.91215,2.235023 -0.98097,1.307494 -2.39378,2.685948 -3.27595,3.196264 -0.35607,0.205981 -1.39192,0.630933 -2.30188,0.944338 -2.64773,0.911913 -3.25878,1.230547 -4.15505,2.166631 -0.74796,0.781183 -0.91677,0.879834 -2.24723,1.313234 -1.99553,0.650052 -3.32587,0.719271 -4.35769,0.226738 z m -5.60838,-15.247877 c 2.57177,-0.652384 3.71049,-1.527281 3.70658,-2.847835 -0.004,-1.204765 -1.41205,-3.021046 -2.85504,-3.68167 -0.66436,-0.304156 -0.92449,-0.34411 -1.88023,-0.288783 -1.32475,0.07669 -2.21651,0.50022 -2.66516,1.265788 -0.56972,0.972158 -0.26326,4.623684 0.46021,5.483478 0.30384,0.361095 0.44817,0.4151 1.10932,0.4151 0.41802,0 1.37396,-0.155735 2.12432,-0.346078 z"
         id="path20" />
      <path
         style="fill:#ffffff;stroke:none;stroke-width:0.271876"
         d="m 154.37011,96.168983 c -0.39563,-0.06162 -1.80055,-0.117712 -3.12204,-0.124644 -2.57264,-0.0135 -3.4897,-0.14481 -4.68176,-0.670382 -1.62196,-0.715109 -3.63853,-2.333035 -4.28695,-3.439473 -0.41356,-0.70569 -1.45636,-1.715554 -3.93372,-3.80947 -1.74025,-1.470904 -3.36744,-3.275763 -3.90726,-4.333891 -1.28755,-2.523818 -0.0757,-6.755363 3.43263,-11.986463 1.18003,-1.759466 2.13523,-3.569512 2.29856,-4.355625 0.091,-0.437916 0.19725,-0.554716 0.64602,-0.710086 0.50765,-0.175751 0.54961,-0.166913 0.76448,0.161027 0.34592,0.527941 0.69368,0.56135 1.58684,0.152447 0.96789,-0.443115 1.2853,-0.453385 2.47606,-0.08012 1.07903,0.338242 1.72475,0.360218 2.39203,0.08141 0.60516,-0.252854 0.8755,-0.766591 0.9843,-1.870516 0.0651,-0.660306 0.16855,-0.935566 0.45966,-1.222876 l 0.37568,-0.370768 0.36786,0.431604 c 1.54006,1.806958 3.11203,3.358958 3.93918,3.889153 0.9794,0.62778 1.5685,1.261927 3.71506,3.999163 3.20103,4.081877 5.55787,5.453217 8.2186,4.782031 2.17529,-0.548732 3.21292,-0.991134 3.84806,-1.640654 0.52733,-0.53926 0.6229,-0.588626 0.69755,-0.360309 0.0476,0.145511 0.53374,1.203303 1.08035,2.350649 1.57695,3.31006 1.62413,4.176272 0.3527,6.47485 -2.34705,4.243154 -7.92016,9.263482 -12.95625,11.671164 -1.41474,0.676368 -2.96087,1.144558 -3.66863,1.110918 -0.19782,-0.0094 -0.68337,-0.06752 -1.07901,-0.129139 z m -5.05622,-21.339761 c 0.9622,-0.40203 2.00401,-2.534759 2.02342,-4.142201 0.0101,-0.833257 -0.0356,-1.009693 -0.34809,-1.344446 -0.19782,-0.211926 -0.53449,-0.476279 -0.74816,-0.587452 -0.55685,-0.289728 -2.13901,-0.249495 -3.55711,0.09046 -1.29804,0.31117 -2.07648,0.704807 -2.32979,1.178121 -0.34576,0.646061 0.27496,2.333642 1.25896,3.42282 0.63674,0.704788 1.35388,1.155324 2.2039,1.384577 0.8573,0.231215 0.93926,0.231113 1.49687,-0.0019 z"
         id="path22" />
      <path
         style="fill:#ffffff;stroke:none;stroke-width:0.271876"
         d="m 119.18125,90.919693 c -2.40809,-0.375351 -4.31779,-1.23075 -5.60459,-2.510428 -0.63235,-0.628852 -1.00178,-1.206538 -1.77787,-2.780135 -0.7959,-1.613775 -1.16689,-2.188278 -1.97792,-3.062969 -3.08957,-3.332112 -4.40014,-7.076577 -3.87238,-11.063881 0.29888,-2.258121 1.18753,-4.525388 3.51114,-8.958204 1.83096,-3.492979 2.95246,-4.648636 5.28342,-5.444322 1.64665,-0.562098 3.18085,-0.597964 5.81814,-0.136013 2.35616,0.412708 5.24244,0.513053 6.67352,0.232014 0.95815,-0.188164 2.78113,-0.191668 4.11656,-0.0079 1.76371,0.242686 2.80542,0.460124 2.80542,0.585581 0,0.06699 -0.27514,0.195646 -0.61143,0.285899 -1.07936,0.289677 -1.25885,0.39698 -1.25885,0.752593 0,0.458968 0.62531,1.020013 1.63364,1.465736 l 0.84237,0.372363 -0.66253,0.7083 c -0.48361,0.517018 -0.66254,0.825155 -0.66254,1.141005 0,0.54187 0.28472,0.704586 1.44511,0.82587 l 0.88289,0.09228 -0.11329,0.661512 c -0.0623,0.363832 -0.11675,0.918975 -0.12096,1.233651 -0.006,0.477845 0.054,0.601941 0.36672,0.752969 0.30728,0.14842 0.52646,0.141056 1.22287,-0.04109 l 0.8485,-0.22192 0.4316,0.505134 c 0.23738,0.277824 0.60964,0.571359 0.82724,0.6523 0.23471,0.0873 0.39564,0.254716 0.39564,0.411571 0,0.434088 -1.16942,2.592611 -2.35478,4.346484 -1.53629,2.273086 -3.0243,5.315855 -3.47406,7.103934 -0.57714,2.294475 -0.43674,4.25211 0.41057,5.724332 0.30331,0.527012 0.30337,0.529622 0.0199,0.843989 -0.77093,0.854871 -5.32744,3.886288 -7.00105,4.657755 -0.42045,0.193808 -1.38211,0.518824 -2.13701,0.722259 -1.58696,0.427656 -3.7668,0.482777 -5.90596,0.149342 z m 13.14592,-21.571416 c 1.24181,-0.263138 2.04655,-0.715373 2.32785,-1.308162 0.28925,-0.609549 0.27489,-1.00899 -0.0631,-1.753486 -0.30077,-0.662622 -2.18434,-2.981748 -2.60428,-3.206491 -0.45157,-0.241675 -1.94272,-0.157613 -2.73355,0.154101 -1.7528,0.690889 -2.57996,1.685302 -2.57717,3.098257 0.002,0.789212 0.48468,1.977369 0.98495,2.422324 0.83206,0.740069 2.79497,0.989768 4.66525,0.593457 z"
         id="path24" />
      <path
         style="fill:#ffffff;stroke:none;stroke-width:0.271876"
         d="m 110.38031,57.894109 c -1.18344,-0.278814 -2.52769,-1.171881 -3.16369,-2.101829 -0.30884,-0.451579 -0.41507,-0.873477 -0.60864,-2.417338 -0.51399,-4.099515 -0.40395,-11.827373 0.20216,-14.197238 0.39035,-1.526266 0.68491,-2.042475 2.354,-4.125389 1.90055,-2.37174 2.74164,-3.186905 4.649,-4.505706 2.80562,-1.939878 4.38949,-2.564328 6.50423,-2.564328 1.41405,0 2.5621,0.334572 3.60154,1.049577 0.94457,0.649748 1.42177,0.788561 3.33213,0.969277 2.80008,0.264881 4.08052,0.659902 5.60475,1.729087 1.10685,0.776412 1.7804,1.677994 2.78897,3.733183 0.49561,1.009911 1.29578,2.299047 2.05389,3.308958 2.01669,2.686507 2.74203,4.513601 3.0992,7.806665 0.14853,1.369459 0.14382,1.607428 -0.0328,1.657256 -0.11342,0.032 -0.88601,0.764301 -1.71684,1.627329 -0.83084,0.86303 -1.58361,1.569138 -1.67283,1.56913 -0.0892,-9e-6 -0.24282,-0.09713 -0.34132,-0.215818 -0.26494,-0.319229 -0.68546,-0.262537 -0.80035,0.107901 -0.0552,0.178036 -0.22832,0.598352 -0.38469,0.934036 -0.24477,0.525484 -0.33197,0.598364 -0.62729,0.524244 -0.52789,-0.132491 -0.57343,0.261766 -0.1597,1.382395 0.39243,1.062911 0.36456,1.176251 -0.32986,1.341371 -0.64751,0.153969 -0.92075,0.457077 -0.92075,1.021415 0,0.48685 -0.027,0.520026 -0.36686,0.451014 -2.34046,-0.475232 -4.45569,-0.572914 -6.33738,-0.292664 -1.97448,0.294073 -3.89723,0.220532 -6.34958,-0.242858 -1.87969,-0.355179 -4.12318,-0.408672 -5.30371,-0.126457 -0.97925,0.234099 -2.48678,0.901394 -3.10959,1.376435 -0.49484,0.377434 -0.99554,0.428513 -1.96398,0.200352 z m 22.8445,-4.306421 c 0.19444,-0.182671 0.62836,-0.75845 0.96426,-1.279511 0.33591,-0.521061 0.88685,-1.326763 1.22432,-1.790451 0.71025,-0.975879 0.80493,-1.690725 0.32648,-2.464876 -0.80184,-1.297402 -3.23683,-2.196464 -4.88074,-1.802098 -1.42969,0.34298 -3.03053,1.677291 -3.03208,2.527269 -7.4e-4,0.406752 1.37346,3.177796 1.91592,3.863385 0.24425,0.3087 0.73841,0.750515 1.09813,0.981811 0.54866,0.352781 0.7649,0.410554 1.34211,0.358568 0.45885,-0.04133 0.80583,-0.172609 1.0416,-0.394097 z"
         id="path26" />
      <path
         style="fill:#ffff00;stroke:none;stroke-width:0.271876"
         d="m 141.99217,66.478989 c -0.33287,-0.508023 -0.51692,-0.530248 -1.56615,-0.18912 l -0.94809,0.308248 -0.70668,-0.696055 c -0.75472,-0.743372 -0.68306,-0.73036 -1.99414,-0.36203 -0.33913,0.09528 -0.65947,0.130353 -0.71188,0.07795 -0.0524,-0.0524 -0.0163,-0.555677 0.0802,-1.118388 0.15127,-0.882104 0.14483,-1.06985 -0.0467,-1.362215 -0.18332,-0.279781 -0.34538,-0.3391 -0.92644,-0.3391 -1.39356,0 -1.50053,-0.314755 -0.44006,-1.29481 0.39564,-0.365633 0.71934,-0.772387 0.71934,-0.903898 0,-0.157607 -0.42784,-0.448878 -1.25519,-0.854515 -0.69036,-0.338473 -1.27564,-0.687987 -1.30062,-0.776698 -0.025,-0.08871 0.26471,-0.238993 0.64376,-0.333958 1.23143,-0.308519 1.65616,-1.016309 1.01769,-1.695926 -0.40054,-0.426363 -0.23171,-0.762484 0.47461,-0.944841 0.27043,-0.06982 0.57261,-0.193777 0.67152,-0.27546 0.24644,-0.203521 0.22544,-0.775517 -0.0555,-1.511097 -0.23399,-0.612705 -0.23327,-0.617769 0.12915,-0.902845 0.20045,-0.157677 0.48438,-0.578286 0.63095,-0.934688 0.26936,-0.654974 0.39237,-0.767107 0.55422,-0.505215 0.28582,0.462462 1.19187,-0.140307 2.50427,-1.666022 0.48191,-0.56024 1.03961,-1.106068 1.23932,-1.21295 0.339,-0.181429 0.39912,-0.159168 0.90545,0.335245 0.62101,0.606397 0.95289,0.650069 1.77047,0.232972 0.74972,-0.382478 1.1717,-0.296008 2.63116,0.539158 0.87917,0.503101 1.39516,0.692365 2.26909,0.832297 1.41993,0.227355 1.63642,0.415647 1.76286,1.533241 0.0945,0.834851 0.14099,0.915036 1.16884,2.014117 1.27933,1.367994 1.36288,1.744228 0.58922,2.653187 -0.8172,0.960107 -0.85554,1.101334 -0.74382,2.740434 0.0938,1.375578 0.0778,1.525631 -0.21245,1.995238 -0.1726,0.279288 -0.68744,0.795279 -1.14407,1.146646 -0.91089,0.700921 -1.09327,1.037202 -1.23085,2.269557 -0.1567,1.403678 -0.99175,1.722056 -2.9262,1.115669 -1.17462,-0.368202 -1.42895,-0.360418 -2.41077,0.07379 -0.4473,0.197818 -0.8361,0.359669 -0.86399,0.359669 -0.0279,0 -0.15321,-0.156414 -0.27847,-0.347589 z m 2.5414,-5.770805 c 1.4584,-0.496928 2.27656,-1.632262 2.27796,-3.161077 0.002,-2.313123 -2.48327,-3.84216 -4.90437,-3.017209 -3.04996,1.039225 -3.03749,5.228167 0.0184,6.177037 0.86481,0.268529 1.82225,0.268987 2.60802,0.0012 z"
         id="path27" />
      <path
         style="fill:#800000;stroke:none;stroke-width:0.271876"
         d="m 131.64973,53.429682 c -0.75018,-0.2055 -1.73642,-1.351981 -2.52084,-2.9304 -0.3998,-0.804494 -0.72691,-1.600239 -0.72691,-1.768322 0,-0.396639 0.80554,-1.172769 1.68183,-1.620426 1.03545,-0.528968 2.55296,-0.504024 3.66661,0.06027 1.39912,0.708946 2.0683,1.650644 1.66647,2.345121 -0.0996,0.172232 -0.71359,1.087855 -1.3643,2.034718 -1.257,1.829086 -1.60157,2.098542 -2.40286,1.879039 z"
         id="path28" />
      <path
         style="fill:#800000;stroke:none;stroke-width:0.271876"
         d="m 148.80226,48.641554 c -1.40488,-0.530747 -2.22958,-1.086213 -2.35508,-1.586238 -0.23208,-0.92469 1.55635,-3.185377 3.03869,-3.841086 0.84568,-0.374085 1.42083,-0.280096 2.15161,0.351615 l 0.54635,0.472282 -0.1477,1.896726 c -0.15415,1.979638 -0.30043,2.417578 -0.94101,2.817201 -0.62734,0.39136 -1.01373,0.372738 -2.29286,-0.1105 z"
         id="path30" />
      <path
         style="fill:#800000;stroke:none;stroke-width:0.271876"
         d="m 154.75632,60.388495 c -0.62131,-0.533729 -0.97802,-3.891247 -0.5167,-4.863402 0.25687,-0.541319 1.04935,-0.987027 2.03144,-1.142534 1.34504,-0.212976 2.99599,0.714643 3.95042,2.21963 1.13899,1.795993 0.0469,2.976749 -3.47755,3.760065 -1.51424,0.336539 -1.6247,0.337997 -1.98761,0.02624 z"
         id="path31" />
      <path
         style="fill:#800000;stroke:none;stroke-width:0.271876"
         d="m 147.7522,74.275007 c -1.59604,-0.568912 -3.24539,-2.836047 -2.88631,-3.967407 0.12479,-0.393156 1.21118,-0.829368 2.78072,-1.116519 1.57814,-0.288724 2.22018,-0.200105 2.80784,0.387554 0.40531,0.405308 0.42504,0.478502 0.35712,1.324717 -0.0813,1.012346 -0.62481,2.298085 -1.29345,3.059627 -0.46331,0.527689 -0.92971,0.610098 -1.76592,0.312028 z"
         id="path32" />
      <path
         style="fill:#800000;stroke:none;stroke-width:0.271876"
         d="m 128.74654,68.719335 c -0.80958,-0.38036 -1.18054,-0.819676 -1.43697,-1.701789 -0.2777,-0.955227 -0.10441,-1.680497 0.55013,-2.30256 0.97527,-0.926879 2.64225,-1.497702 3.53786,-1.21147 0.52649,0.168264 1.57079,1.268748 2.50736,2.642276 0.55494,0.81384 0.54047,1.540421 -0.0404,2.029212 -0.61184,0.514833 -1.27801,0.681948 -3.01676,0.756782 -1.2815,0.05515 -1.60018,0.02293 -2.10119,-0.212451 z"
         id="path33" />
      <path
         style="fill:#ffcc00;stroke:none;stroke-width:0.271876"
         d="m 141.85238,60.084218 c -0.74016,-0.336248 -1.45472,-1.152446 -1.65273,-1.887817 -0.20601,-0.765068 0.0139,-1.570821 0.61575,-2.256313 1.70334,-1.940005 5.18036,-1.058385 5.50939,1.39694 0.0711,0.530958 0.0147,0.777367 -0.32725,1.428014 -0.33652,0.640341 -0.5556,0.860702 -1.18003,1.186909 -0.9276,0.484584 -2.07676,0.535845 -2.96513,0.132267 z"
         id="path34" />
    </g>
  </g>
  <path
     style="fill:none;stroke:#000000;stroke-width:1.41732;stroke-linecap:round;stroke-miterlimit:3.9;stroke-dasharray:4.25196, 4.25196;stroke-dashoffset:0;paint-order:normal"
     d="m 89.53806,75.635281 c 0,0 26.45576,-19.794575 59.57674,-0.658004"
     id="path38"
     sodipodi:nodetypes="cc" />
</svg>
